<svg width="138" height="145" fill="none" xmlns="http://www.w3.org/2000/svg"><path d="m35.682 0 .502 8.3c0 .5-.301.9-.804.9h-.1c-.504 0-.805-.4-.906-.8L33.871 0" fill="#525252"/><path d="M116.853 130.13c-13.277 3.494-26.756 5.891-40.334 5.591-13.579-.299-27.158-3.295-39.429-10.383-6.437-3.694-12.472-8.486-16.998-15.075-.906-1.298-1.81-2.795-2.012-4.393-.201-1.697.302-3.594 1.61-4.293 1.005-.499 2.111-.199 3.117.2 16.295 5.391 33.193 12.28 49.789 8.386 1.207-.299 2.716-1.198 2.313-2.595-.1-.599-.603-.999-1.006-1.298-5.13-3.994-10.963-6.79-15.49-11.681-.804-.898-1.71-1.997-1.81-3.394-.1-2.596 2.515-3.994 4.627-3.994 4.526 0 8.55 2.796 12.774 4.792 6.74 3.195 14.082 4.094 21.123 6.09 7.04 1.997 14.282 5.192 20.619 11.182 1.911 2.096 3.621 4.392 5.13 6.789 1.81 2.895 3.42 6.489 2.012 9.584-.604 1.897-2.314 3.594-6.035 4.492Z" fill="#F8FAFC"/><path d="M20.896 102.177c-.302 0-.503 0-.704.199-.805.4-1.408 1.997-1.207 3.395.201 1.497 1.006 2.795 1.81 4.093 4.024 5.79 9.455 10.682 16.697 14.875 11.265 6.49 24.442 9.984 39.026 10.283 11.87.3 24.643-1.497 40.032-5.49 3.923-.999 5.13-2.896 5.633-4.194 1.006-2.296.302-5.191-1.911-8.785a47.662 47.662 0 0 0-5.029-6.589c-5.432-5.092-12.07-8.686-20.217-10.882-2.213-.6-4.527-1.098-6.74-1.597-4.827-1.099-9.856-2.297-14.584-4.493-1.006-.5-2.012-.998-2.917-1.498-3.218-1.697-6.236-3.194-9.455-3.194-1.106 0-2.313.499-3.118 1.198-.503.499-.704 1.198-.704 1.896.1 1.099.805 2.097 1.509 2.796 2.816 2.995 6.136 5.191 9.455 7.388 2.011 1.298 4.023 2.695 5.934 4.193.402.299 1.106.898 1.308 1.797.402 1.797-1.207 3.195-3.018 3.694-15.087 3.594-30.275-1.598-45.061-6.689-1.71-.599-3.52-1.198-5.23-1.797-.403-.499-1.006-.599-1.51-.599Zm57.936 34.443h-2.314c-14.886-.3-28.264-3.794-39.83-10.483-7.444-4.293-13.177-9.285-17.3-15.374-.906-1.398-1.912-2.896-2.113-4.793-.302-1.896.402-4.292 2.112-5.191 1.408-.699 2.816-.2 3.822.1 1.71.599 3.52 1.198 5.23 1.797 14.485 4.892 29.471 10.083 44.056 6.589.603-.1 1.911-.699 1.71-1.597-.1-.3-.302-.5-.704-.899-1.81-1.497-3.822-2.795-5.834-4.093-3.32-2.196-6.84-4.493-9.757-7.687-.905-.899-1.91-2.297-2.011-3.894-.1-1.198.402-2.296 1.207-3.095 1.006-1.098 2.716-1.797 4.325-1.797 3.62 0 7.04 1.697 10.26 3.394 1.005.5 1.91.999 2.916 1.398 4.526 2.097 9.455 3.195 14.183 4.293 2.212.5 4.526.999 6.84 1.697 8.448 2.296 15.288 6.09 21.021 11.382l.101.099c1.911 2.097 3.621 4.493 5.23 6.889 2.615 4.093 3.319 7.587 2.112 10.483-1.106 2.595-3.319 4.193-6.839 5.091-14.786 3.894-27.057 5.691-38.423 5.691Z" fill="#525252"/><path d="M135.562 141.912c-7.745 1.597-15.792 1.797-23.537.299 2.213-13.578 2.515-27.055 1.107-40.633 5.13.699 10.36.599 15.59.599 2.515 0 5.029 0 7.343.1 1.207 13.078 1.609 26.356-.503 39.635Z" fill="#F8FAFC"/><path d="M113.03 141.511a61.7 61.7 0 0 0 21.827-.299c1.81-11.182 1.911-22.962.402-38.237-2.112-.1-4.325 0-6.538 0-4.828 0-9.757.1-14.585-.4 1.207 13.478.805 26.257-1.106 38.936Zm9.958 2.596c-3.722 0-7.544-.3-11.165-.998-.503-.1-.805-.5-.704-.999 2.112-13.178 2.514-26.356 1.106-40.433 0-.3.101-.499.302-.699.201-.2.503-.299.704-.2 5.13.599 10.36.599 15.389.5 2.515 0 5.029 0 7.343.099.402 0 .805.4.805.799 1.609 15.974 1.508 28.353-.403 40.034-.1.399-.302.599-.704.699-4.124.699-8.348 1.198-12.673 1.198Z" fill="#525252"/><path d="M124.496 110.163c-1.408-.2-2.816.799-3.319 2.197-.402 1.397.201 3.094 1.408 3.993 1.207.799 2.816.699 4.023-.2 1.409-1.098 1.911-3.494.704-4.792-.804-.898-2.011-1.098-2.816-1.198Z" fill="#F8FAFC"/><path d="M124.094 110.962c-.905 0-1.81.699-2.011 1.597-.302 1.098.201 2.396 1.006 2.995.905.599 2.112.499 2.917-.1.502-.399.905-1.198 1.005-1.996a2.139 2.139 0 0 0-.402-1.598c-.503-.599-1.509-.798-2.213-.898H124.094Zm.403 6.789c-.805 0-1.71-.2-2.314-.699-1.508-.999-2.212-3.095-1.709-4.892.502-1.897 2.413-3.195 4.224-2.796h.101c.804.1 2.313.4 3.218 1.498.704.799 1.006 1.797.805 2.895-.101 1.298-.704 2.396-1.71 3.195-.805.499-1.71.799-2.615.799ZM123.087 140.712c-2.514-.798-4.928-1.996-7.04-3.394-.101-.1-.202-.3-.101-.399.101-.1.302-.2.402-.1 2.213 1.397 4.426 2.496 6.84 3.294.101.1.201.2.201.4 0 .099-.201.199-.302.199ZM132.141 140.713h-.101a115.724 115.724 0 0 1-15.288-7.787c-.101-.1-.202-.299-.101-.399.101-.1.302-.2.402-.1 4.828 2.995 9.958 5.591 15.188 7.787.202.1.202.2.202.4 0 0-.101.099-.302.099ZM133.046 136.42h-.1c-5.13-2.496-10.159-5.191-14.987-8.186-.101-.1-.202-.3-.101-.399.101-.1.302-.2.402-.1 4.828 2.895 9.858 5.69 14.987 8.086.101.1.201.2.101.4-.101.1-.201.199-.302.199ZM133.046 132.327h-.101c-5.431-3.095-10.862-6.19-16.395-9.185-.1-.1-.201-.299-.1-.399.1-.1.302-.2.402-.1 5.432 2.995 10.964 6.09 16.395 9.185.101.1.201.299.101.399-.101 0-.201.1-.302.1ZM133.75 127.236h-.1l-16.496-9.085c-.101-.1-.201-.3-.101-.399.101-.1.202-.2.403-.1l16.495 9.085c.101.1.202.299.101.399-.101.1-.201.1-.302.1ZM133.751 122.343h-.1c-1.811-1.098-3.621-2.196-5.331-3.394-.101-.1-.201-.3-.101-.4.101-.099.302-.199.403-.099 1.71 1.198 3.52 2.296 5.331 3.394.1.1.201.299.1.399-.1 0-.201.1-.302.1ZM133.952 117.251h-.101c-1.207-.599-2.313-1.198-3.42-1.997-.1-.099-.201-.299-.1-.399.1-.1.301-.2.402-.1 1.106.699 2.213 1.398 3.319 1.897.201.1.201.2.101.399 0 .1-.101.2-.201.2ZM134.353 111.361l-.201-.1-9.656-6.589c-.101-.099-.201-.299-.101-.399.101-.1.302-.2.403-.1l9.655 6.589c.101.1.202.3.101.4 0 .099-.101.199-.201.199ZM118.763 112.36h-.201c-.805-.5-1.509-1.099-2.213-1.598a.3.3 0 0 1 0-.399c.1-.1.302-.1.402 0a17.734 17.734 0 0 0 2.213 1.597c.101.1.201.3.101.4h-.302ZM120.976 108.565l-.201-.1-4.225-3.094c-.1-.1-.201-.3-.1-.4.1-.1.302-.199.402-.1l4.225 3.095c.1.1.201.3.1.4l-.201.199Z" fill="#525252"/><path d="M24.215 72.126c-.201-2.396-.905-4.792-2.012-6.988-.603-1.098-1.307-2.197-2.212-3.195-.906-.998-2.113-1.697-3.119-2.596-3.319-2.795-5.431-6.589-5.833-10.682-.403-3.195-.906-6.689-.1-9.784.603-2.296 4.525-8.686 6.839-10.682 3.822-3.195 9.354-5.092 14.484-5.79 5.13-.6 10.46.299 14.785 2.795 5.633 3.194 9.355 8.885 10.16 14.875.804 5.99-1.208 12.18-5.231 17.072-1.61 1.997-3.621 3.794-5.23 5.79-2.314 2.796-3.923 6.09-4.828 9.285-2.112.3-4.225.3-6.438.3H30.05c-1.81 0-3.822-.1-5.834-.4Z" fill="#F8FAFC"/><path d="M23.209 72.525c6.538.6 13.076.6 19.614 0 .402 4.992.704 8.087-.805 12.88-.704 2.395-2.012 4.791-4.426 5.99-2.816 1.397-6.236.698-9.354-.1-1.207-.3-2.414-.6-3.42-1.398-1.91-1.498-2.011-4.094-2.011-6.49.2-4.392.301-6.788.402-10.882Z" fill="#06B6D4"/><path d="M36.487 92.791c-.402-.2-.704-.399-.905-.698a5.85 5.85 0 0 0 2.112-.7c2.414-1.197 3.621-3.593 4.426-5.99 1.509-4.891 1.106-7.886.805-12.878-1.81.2-3.621.3-5.432.4 0-.1.1-.2.1-.3 1.51 0 3.018-.1 4.527-.3v-.2h.1c.202 0 .403 0 .503-.1.705.7.705 1.798.805 2.696.1 1.398.201 2.895 0 4.293-.603 3.295-.704 3.894-1.307 6.889-.403 1.397-.805 2.795-1.51 4.093-.402.3-.804.6-1.206.799-.805.599-1.61 1.198-2.414 1.697-.302 0-.403.2-.604.3ZM54.29 53.956c2.113-3.595 3.22-7.788 3.119-11.88.1.099.2.099.301.199.805.799.201 2.496-.1 3.993a8.582 8.582 0 0 1-.604 2.297c-.2.399-.402.798-.603 1.297v-.1.1c-.403.999-.302.799-.905 2.197-.302.699-.705 1.298-1.207 1.897Z" fill="#F8FAFC"/><path d="M37.492 72.525c0-.1.1-.2.201-.3v-.2c-.1-.998.604-2.196 1.006-3.094.704-1.398.604-1.398 1.71-3.295.604-.998 1.308-1.797 2.012-2.695.2-.3 1.408-1.897 2.011-2.596 2.012-2.496 5.432-5.49 6.639-6.988 1.006-1.199 1.61-2.396 1.911-2.896 1.106-1.797 1.308-2.396 2.213-4.592.1-.2.1-.3.1-.3s0 .1-.1.2c.1-.3.302-1.398.402-1.697v-.3c.1-.898 0-.599.302-1.198.201-.3.603-.499 1.006-.499.2 0 .402 0 .503.1.1 4.093-1.006 8.187-3.118 11.88-.906 1.198-1.911 2.297-3.018 3.395-1.71 1.697-3.52 3.394-5.13 5.191-2.514 3.095-3.62 5.391-5.029 9.584.302 0 .604-.1.905-.1v.2c-1.508.1-3.017.2-4.526.2Z" fill="#F8FAFC"/><path d="M35.48 91.993c-.2-.3-.3-.799-.2-1.198 0-.4.301-.799.503-1.198.804-1.498.402-.6 1.005-2.197 1.006-3.294.805-1.897 1.006-5.59.201-3.495.201-5.79-.503-7.688-.1-.499-.1-.998 0-1.397 1.81-.1 3.621-.2 5.432-.4.402 4.992.704 8.087-.805 12.879-.704 2.396-2.011 4.792-4.425 5.99-.503.5-1.208.699-2.012.799Z" fill="#06B6D4"/><path d="M38.498 69.131c.1-.1.1-.3.201-.4v.1c-.1.1-.201.2-.201.3Z" fill="#F8FAFC"/><path d="M23.713 73.225v10.682c0 1.198 0 2.396.503 3.494.905 2.097 3.52 3.594 7.141 4.094 3.621.499 6.74-.2 8.248-1.997 1.006-1.198 1.408-2.796 1.71-4.393.805-4.892 1.106-6.889.805-11.68-4.124.2-13.981.1-18.407-.2ZM33.57 93.39c-1.006 0-1.81-.1-2.414-.2-2.012-.299-6.94-1.397-8.449-5.19-.604-1.299-.604-2.796-.604-4.094v-11.58c0-.2.101-.5.302-.7.201-.2.403-.2.704-.2 3.822.4 16.395.6 19.815.3.201 0 .503 0 .604.2.2.1.302.4.302.599.502 5.69.2 7.787-.705 12.978-.402 1.698-.905 3.694-2.212 5.192-1.911 2.196-4.929 2.695-7.343 2.695Z" fill="#525252"/><path d="M41.515 73.325h-.1c-.504-.1-.805-.5-.705-.999.805-5.091 4.526-9.085 8.047-12.978 3.219-3.494 6.538-7.088 7.544-11.381.402-1.797.704-7.588-1.409-12.88-1.408-3.593-3.42-6.189-5.934-7.886-4.828-3.195-13.176-5.59-19.714-3.694-6.236 1.697-11.366 4.992-14.384 9.185-2.816 3.794-3.922 8.586-3.42 13.478.604 4.592 2.616 8.985 6.036 12.878.503.5 1.005 1.099 1.508 1.598 1.006 1.098 2.112 2.296 3.018 3.594 1.61 2.296 2.414 4.992 2.514 7.787 0 .499-.402.898-.804.898a.898.898 0 0 1-.905-.898c-.101-2.396-.805-4.792-2.213-6.889-.805-1.198-1.81-2.196-2.817-3.294-.503-.5-1.006-1.099-1.508-1.697-3.621-4.194-5.834-8.986-6.438-13.878-.603-5.29.704-10.482 3.722-14.675 3.218-4.493 8.75-7.987 15.389-9.884 7.04-1.997 15.993.5 21.223 3.993 2.816 1.897 5.03 4.793 6.639 8.686 2.112 5.191 2.112 11.281 1.508 13.877-1.106 4.792-4.627 8.486-8.046 12.18-3.52 3.794-6.84 7.488-7.645 11.98-.301.6-.704.899-1.106.899Z" fill="#525252"/><path d="m33.769 36.985-.1.1c-.906 1.198-1.208 2.795-1.107 4.991.1 1.198.302 2.297.603 3.295.503-1.198.906-2.496 1.107-3.794.302-1.997.201-3.494-.503-4.592ZM20.593 45.47a.77.77 0 0 0-.503.2c-.101.199 0 .598.301 1.098 1.006 1.497 2.716 2.595 4.325 3.494-.603-1.298-1.408-2.596-2.514-3.694-.302-.4-.704-.799-1.207-.899-.201-.2-.302-.2-.402-.2Zm23.335.3c-.1 0-.302.099-.503.299-1.71 1.098-3.118 2.595-4.023 4.293.301 0 .704-.1 1.005-.2 1.308-.4 2.414-1.498 3.32-3.095.301-.599.301-1.198.2-1.298Zm-7.745 27.154c-.503 0-.905-.399-.905-.798l.905-.1h-.905c.1-4.692.301-9.684.704-14.676.2-1.997.402-3.893.905-5.69a7.697 7.697 0 0 1-3.621-2.397h-.1c-.101.2-.202.4-.302.5-1.308 2.096-2.817 3.194-4.426 3.294h-.805c.302 1.098.604 2.296.805 3.395 1.006 5.091 1.509 10.283 1.308 15.474 0 .5-.403.898-.906.799-.503 0-.905-.4-.804-.899.1-5.091-.302-10.183-1.308-15.075-.302-1.398-.603-2.795-1.106-4.293-.201-.1-.302-.1-.503-.2-2.113-.998-4.828-2.396-6.236-4.692-.704-1.098-.805-2.296-.202-3.095.604-.798 1.81-1.098 2.817-.699.905.3 1.508.899 2.011 1.398 1.61 1.797 2.716 3.794 3.52 5.89.504.1.906.2 1.308.2 1.107-.1 2.113-.898 3.119-2.496.2-.4.502-.798.704-1.298-.805-1.497-1.207-3.194-1.308-5.29-.1-1.698-.1-4.194 1.408-6.19.503-.7 1.308-.999 1.911-.8.503.1.805.5 1.006.8 1.308 1.996 1.106 4.292.805 5.89a27.91 27.91 0 0 1-1.81 5.59c.2.2.301.4.502.7.704.798 1.71 1.497 2.917 1.896 1.006-2.196 2.716-4.193 4.929-5.49.502-.3 1.005-.6 1.71-.5.603.1 1.106.4 1.307.898.402.899.201 1.997-.201 2.796-1.106 1.997-2.615 3.394-4.325 3.993-.704.2-1.509.3-2.314.3-.503 1.697-.704 3.494-.905 5.49-.402 4.992-.603 9.884-.704 14.477 0 .499-.402.898-.905.898ZM9.127 29.398c-.101 0-.302 0-.403-.1L.577 25.305c-.402-.2-.604-.7-.402-1.198.2-.4.704-.6 1.207-.4l8.147 3.994c.402.2.603.698.402 1.198-.201.3-.503.499-.804.499ZM60.727 30.495c-.301 0-.603-.2-.804-.499-.202-.399 0-.998.402-1.198l8.248-3.993c.402-.2 1.006 0 1.207.4.201.399 0 .998-.403 1.197l-8.247 3.994c-.202.1-.302.1-.403.1ZM70.884 56.352c-.201 0-.302 0-.503-.1-2.917-1.797-5.934-3.294-9.052-4.592-.403-.2-.704-.699-.503-1.098.2-.4.704-.7 1.106-.5 3.219 1.298 6.337 2.896 9.354 4.693.403.3.503.798.302 1.198-.201.2-.402.4-.704.4ZM.88 61.544c-.302 0-.503-.1-.705-.4-.301-.3-.2-.898.202-1.098 2.615-1.797 5.532-3.494 8.449-4.792.402-.2.905 0 1.106.4.201.399 0 .998-.402 1.197-2.817 1.298-5.633 2.896-8.148 4.693H.88Z" fill="#525252"/><path d="M78.832 134.922H76.52c-9.556-.2-18.608-1.797-26.755-4.692.1-.699.603-1.298 1.508-1.398h.302c.604 0 1.107.299 1.61.399 1.207.3 2.413.4 3.62.599 3.823.4 12.372.899 17.904 1.697 1.107.1 2.213.1 3.219.1 1.106 0 2.213 0 3.32-.1h2.514c2.514 0 5.13-.099 7.644-.299 6.035-.599 7.946-.499 13.478-1.897.403-.399 1.107-.599 1.61-.898 1.508-.799 1.508-.699 2.212-1.498l.202-.2s-.101.2-.302.3c.1-.1.201-.3.302-.399 0-.1.1-.2.201-.3.201-.2.704-1.198.804-1.497.906-2.896.805-3.694 1.006-6.789.101-.999-.1-1.997-.1-2.995 0-.599-.302-1.298.1-1.897.302-.499.805-.699 1.308-.699.1 0 .302 0 .402.1.201 5.99.101 11.88-.402 17.77-12.372 3.095-23.235 4.593-33.394 4.593Z" fill="#F8FAFC"/><path d="M85.77 135.521c-3.318-.1-6.638 0-10.057-.2-3.32-.299-5.834-.699-8.148-.998-5.532-.699-11.265-.499-16.596-1.997-1.006-.299-1.408-1.298-1.308-2.097 8.248 2.896 17.2 4.493 26.756 4.693h2.313c10.159 0 21.022-1.498 33.695-4.493v.499h-.301l-.604.3c-3.722 1.497-7.745 2.196-11.668 2.995-4.526.599-9.253 1.198-14.081 1.298ZM112.527 130.829v-.499c.503-5.89.604-11.78.403-17.77.402.099.804.399.905.898.201.399.503 2.895.603 4.593-.1 2.495-.1 4.991-.603 7.387-.101.3-.201.499-.302.799.403.399.704.998.604 1.597v-.199.1c0 .499.1.998-.403 1.697l-.1.1c0 .798-.503 1.198-1.107 1.297Z" fill="#525252"/><path d="M111.521 131.229c.101 0 .101-.1.202-.1l.201-.1c-.201.1-.302.1-.403.2Z" fill="#525252"/><path d="M122.989 142.31c-3.319 0-6.739-.299-9.958-.798.201-1.198.403-2.396.503-3.594h.101c.704 0 1.408.199 2.112.299-.201 0-.402-.1-.604-.1.805.1 1.61.2 2.515.2 1.71.998 3.52 1.797 5.331 2.396h.101c.1 0 .201-.1.301-.2.101-.199 0-.299-.201-.399a30.25 30.25 0 0 1-4.124-1.797h1.71c.704 0 1.308 0 2.012-.1h1.106c1.006 0 2.012 0 2.917-.1 1.811.799 3.521 1.598 5.331 2.396h.101c.1 0 .201-.1.301-.199.101-.1 0-.3-.201-.4-1.509-.599-2.917-1.298-4.325-1.897 1.811-.099 3.319-.299 4.828-.499.101 0 .201 0 .302-.1.302-.099.704-.199.805-.299.201-.1.201-.2 1.005-.3.202 0 .403 0 .503.1-.201 1.298-.301 2.596-.503 3.894-4.023 1.098-8.046 1.497-11.969 1.497Z" fill="#F8FAFC"/><path d="M122.485 143.008c-3.219 0-6.337-.399-9.455-.898-1.81-.4-2.112-3.095-.503-3.894.302-.2.604-.299 1.006-.299-.201 1.198-.302 2.396-.503 3.594 3.319.599 6.639.798 9.958.798a58.08 58.08 0 0 0 11.768-1.198c.201-1.298.402-2.595.503-3.893.704.199 1.308.798 1.408 1.597.201.998-.503 1.897-1.408 2.196-.302.1-1.106.4-1.106.4-1.509.599-3.119.799-4.728.998-1.609.2-3.219.4-4.828.4-.603.199-1.408.199-2.112.199Z" fill="#525252"/><path d="M123.088 140.713a26.362 26.362 0 0 1-5.432-2.396c.503 0 .905.1 1.408.1a30.25 30.25 0 0 0 4.124 1.797c.101.1.201.2.201.4 0 0-.201.099-.301.099ZM132.14 140.713h-.1c-1.811-.699-3.521-1.498-5.331-2.396.402 0 .805 0 1.207-.1 1.408.699 2.917 1.298 4.325 1.897.201.099.201.199.201.399 0 .1-.1.2-.302.2Z" fill="#525252"/></svg>