<svg width="136" height="150" fill="none" xmlns="http://www.w3.org/2000/svg"><g clip-path="url(#a)"><path d="M54.061 124.834a46.093 46.093 0 0 0-4.965-19.496c-4.965-10.047-13.506-18.104-18.272-28.25-5.561-11.936-3.675-26.359 2.582-35.51 8.937-12.832 24.727-18.402 36.743-17.706 7.547.398 29.891 2.885 36.842 25.365 6.951 22.58-9.732 38.893-15.889 48.442-4.27 6.565-9.533 12.931-10.228 20.689-.199 1.791-.199 3.681-1.192 5.173-1.192 1.79-3.575 2.387-5.66 2.884-3.873.896-7.846 1.791-11.818 1.095-3.773-.597-7.745-3.084-8.143-2.686Z" fill="#F8FAFC"/><path d="M54.953 124.039c.397.099.993.398 1.589.696 1.589.696 3.773 1.591 5.859 1.989 3.773.597 7.646-.298 11.42-1.094 2.185-.497 4.17-.995 5.164-2.586.695-1.094.794-2.487.993-3.979 0-.298 0-.497.1-.796.595-6.664 4.369-12.234 8.043-17.606a41.94 41.94 0 0 0 2.284-3.481c.993-1.592 2.383-3.382 3.773-5.272 7.051-9.549 17.776-24.072 12.016-42.473-6.256-20.093-25.322-24.171-36.047-24.768-11.123-.597-27.11 4.476-35.85 17.307-6.554 9.55-7.646 23.873-2.482 34.715 2.383 5.173 5.859 9.848 9.235 14.423 3.178 4.377 6.554 8.853 8.938 13.827 2.88 5.868 4.568 12.533 4.965 19.098Zm10.13 4.575c-.994 0-1.987-.099-2.98-.199-2.383-.398-4.767-1.392-6.256-2.089-.596-.298-1.291-.596-1.59-.596h-.496c-.298-.1-.496-.398-.596-.796-.198-6.565-1.886-13.23-4.865-19.098-2.384-4.775-5.66-9.25-8.839-13.528-3.376-4.675-6.951-9.45-9.434-14.722-5.362-11.34-4.27-26.359 2.682-36.405 9.235-13.429 25.422-18.8 37.438-18.104 11.221.696 31.082 4.874 37.636 25.962 5.959 19.297-5.064 34.217-12.314 44.065-1.39 1.89-2.68 3.58-3.674 5.172-.794 1.194-1.49 2.288-2.284 3.482-3.575 5.271-7.15 10.643-7.746 16.81 0 .298 0 .497-.099.796-.1 1.691-.298 3.382-1.29 4.774-1.391 1.99-3.775 2.686-6.158 3.283-2.78.497-5.958 1.193-9.136 1.193Z" fill="#525252"/><path d="M84.745 114.59s-35.055-.498-35.055-.1c-.496 7.162 0 14.523 1.291 21.585.695 3.581 2.284 12.135 15.095 12.832 10.129.596 14.796-5.073 16.187-10.942 1.688-6.664 2.482-15.318 2.482-23.375Z" fill="#F8FAFC"/><path d="M50.486 115.286c-.397 6.863 0 13.826 1.39 20.59.695 3.78 2.185 11.439 14.3 12.135 11.42.696 14.499-6.963 15.293-10.245 1.49-6.267 2.383-14.423 2.383-22.381-12.314-.099-29.791-.199-33.366-.099Zm17.08 34.615h-1.589c-13.505-.796-15.193-9.748-15.889-13.528-1.39-7.261-1.787-14.522-1.29-21.883.099-.895.595-.895 2.383-.895h3.972c2.88 0 6.952 0 12.115.099 8.64.1 17.478.199 17.478.199a.89.89 0 0 1 .894.895c0 8.356-.894 16.91-2.483 23.575-.894 3.481-4.071 11.538-15.59 11.538Z" fill="#525252"/><path d="M73.126 120.756c-6.753 0-13.506-.199-20.258-.497-.199 0-.298-.1-.298-.298 0-.199.1-.299.298-.299 9.434.497 18.868.696 28.302.497.198 0 .298.1.298.299 0 .199-.1.298-.298.298h-8.044ZM63.097 126.127c-3.277 0-6.455-.099-9.732-.199-.199 0-.298-.099-.298-.298 0-.199.1-.299.298-.299 9.136.299 18.371.199 27.408-.397.199 0 .298.099.298.298 0 .199-.1.298-.298.298a262.21 262.21 0 0 1-17.676.597ZM53.96 131.498c-.198 0-.297-.099-.297-.298 0-.199.099-.298.298-.298l26.216-.597c.199 0 .298.099.298.298 0 .199-.1.299-.298.299l-26.217.596ZM63.395 136.671h-8.243c-.198 0-.297-.1-.297-.299 0-.198.099-.298.297-.298 7.945.1 15.89 0 23.834-.099.198 0 .298.099.298.298 0 .199-.1.298-.298.298-5.164 0-10.427.1-15.591.1ZM64.984 141.247c-2.78 0-5.561 0-8.242-.1-.199 0-.298-.099-.298-.298 0-.199.198-.299.298-.299 6.951.199 13.902.199 20.854-.198.198 0 .298.099.298.298 0 .199-.1.298-.298.298-4.17.199-8.342.299-12.612.299ZM67.27 145.425c-2.384 0-4.767-.1-7.15-.199-.2 0-.299-.1-.299-.299 0-.199.1-.298.298-.298 4.37.298 8.838.298 13.208.099.198 0 .298.1.298.299 0 .199-.1.199-.199.199-2.085.099-4.071.199-6.157.199Z" fill="#525252"/><path d="M65.778 150c-1.092 0-2.284-.1-3.475-.398-.894-.199-1.788-.597-2.582-1.094 1.787.597 3.873 1.094 6.355 1.193h1.887c-.794.299-1.49.299-2.185.299ZM67.566 148.109h-1.39c-7.05-.397-10.526-3.183-12.314-6.167.398-.497.993-.895 1.688-.895.398 0 .795.1 1.192.298 3.277 1.791 4.37 2.388 5.66 2.786.696.298 1.49.397 2.384.397 1.986 0 4.27-.596 5.164-1.094a11.533 11.533 0 0 0 3.277-2.287c1.49 0 2.979-.1 4.469-.199.198 0 .297-.1.297-.299 0-.199-.099-.298-.297-.298-1.291.099-2.582.099-3.873.199 1.39-1.393 2.582-2.984 3.177-3.979h2.086c.198 0 .298-.1.298-.298 0-.199-.1-.299-.298-.299h-1.788c.596-1.691 1.291-3.282 1.689-4.973h1.191c.199 0 .298-.1.298-.299 0-.199-.1-.298-.298-.298h-1.092c.1-.299.1-.597.198-.895.2-1.294.298-2.587.398-3.88.397 0 .794-.099 1.191-.099.199 0 .298-.1.298-.299 0-.099-.099-.298-.298-.298-.397 0-.794 0-1.191.099.099-1.392.198-2.785.298-4.277h1.39c.198 0 .298-.099.298-.298 0-.199-.1-.299-.298-.299h-1.291c.1-1.392.199-2.785.298-4.376v-.299h3.575c0 7.958-.894 16.015-2.383 22.381-.2.895-.596 2.089-1.291 3.382-.894 1.393-1.887 2.586-2.88 3.68-2.185 1.791-5.363 3.183-9.832 3.183Zm-7.448-3.481c-.198 0-.297.099-.297.298 0 .199.099.299.297.299 2.384.099 4.767.199 7.15.199 2.086 0 4.072 0 6.157-.1.2 0 .298-.099.298-.298 0-.199-.099-.299-.297-.299-1.987.1-4.072.1-6.058.1-2.483 0-4.866-.1-7.25-.199Z" fill="#F8FAFC"/><path d="M67.566 149.901h-1.589c-2.482-.199-4.667-.596-6.355-1.193a9.103 9.103 0 0 1-1.291-.796c.1 0 .1.099.1.099-1.292-.895-2.682-1.79-4.072-2.685-1.39-.895-1.39-2.387-.596-3.382 1.787 2.984 5.263 5.769 12.314 6.167h1.39c4.568 0 7.647-1.393 9.732-3.183-2.582 2.686-5.76 4.476-9.434 4.973h-.199Zm12.612-8.653c.695-1.294 1.092-2.487 1.291-3.382 1.49-6.267 2.383-14.424 2.383-22.381h-3.575c.1-1.094 1.093-1.691 2.086-1.691.794 0 1.49.398 1.787 1.194.298.397.199.994.1 1.492-.1 1.392-.1 2.785-.199 4.177-.1 1.194-.1 2.388-.199 3.581.199.597 0 1.094 0 1.592-.099 2.884-.099 2.785-.496 5.371-.199 1.492-.993 5.471-2.383 8.455-.1.497-.497.995-.795 1.592Z" fill="#525252"/><path d="M79.88 120.656v-.596h1.29c.199 0 .298.099.298.298 0 .199-.099.298-.298.298h-1.29ZM79.58 125.63v-.597c.398 0 .795 0 1.192-.099.199 0 .298.099.298.298 0 .199-.1.298-.298.298-.298 0-.794 0-1.191.1ZM78.985 130.902c0-.199.1-.398.1-.597h1.092c.198 0 .297.099.297.298 0 .199-.099.299-.297.299h-1.192ZM76.9 136.571l.298-.596h1.788c.198 0 .298.099.298.298 0 .199-.1.298-.298.298H76.9ZM73.125 141.147l.596-.597c1.29 0 2.582-.099 3.873-.198.198 0 .298.099.298.298 0 .199-.1.298-.298.298-1.49.1-2.98.199-4.469.199ZM67.27 145.425c-2.384 0-4.767-.1-7.15-.199-.2 0-.299-.1-.299-.299 0-.099.1-.298.298-.298 2.383.099 4.767.199 7.15.199 2.086 0 4.072 0 6.058-.1.198 0 .298.1.298.299 0 .199-.1.298-.298.298-1.986 0-3.972.1-6.058.1ZM58.627 148.011c0-.1-.1-.1 0 0-.1-.1 0-.1 0 0ZM69.452.199c-.397 3.979-.496 7.957-.496 11.936a.89.89 0 0 1-.894.896.89.89 0 0 1-.894-.896c0-4.078.1-8.156.496-12.135M134.299 66.445l-11.222-.497c-.496 0-.794-.398-.794-.896 0-.497.397-.895.893-.795l11.123.497c.496 0 .893.398.794.895 0 .398-.397.796-.794.796ZM115.43 109.217c-.198 0-.298 0-.496-.099l-9.335-6.167c-.397-.299-.497-.796-.199-1.194.298-.398.795-.497 1.192-.199l9.335 6.167c.397.299.496.796.198 1.194-.099.099-.397.298-.695.298ZM24.37 27.751c-.199 0-.397-.1-.596-.199-3.078-2.785-5.958-5.868-8.44-9.15-.299-.399-.2-.896.098-1.195.398-.298.894-.198 1.192.1 2.483 3.183 5.263 6.167 8.242 8.952.398.299.398.895.1 1.194-.199.199-.397.298-.596.298ZM1.825 66.247c-.496 0-.893-.398-.893-.796 0-.497.298-.895.794-.895l11.222-.497c.496 0 .893.398.893.795 0 .498-.397.896-.794.896l-11.222.497ZM18.708 109.019c-.298 0-.596-.099-.695-.398-.298-.398-.199-.895.199-1.193l9.334-6.168c.398-.298.894-.199 1.192.199.298.398.199.896-.199 1.194l-9.334 6.167c-.1.199-.298.199-.497.199Z" fill="#525252"/><path d="M45.421 65.75c0-12.534 10.13-22.78 22.741-22.78 12.513 0 22.741 10.147 22.741 22.78 0 12.532-10.129 22.778-22.74 22.778-12.513 0-22.742-10.246-22.742-22.779Z" fill="#06B6D4"/><path d="M68.16 43.867c-12.015 0-21.846 9.847-21.846 21.883s9.83 21.883 21.847 21.883c12.016 0 21.847-9.847 21.847-21.883 0-12.135-9.732-21.883-21.847-21.883Zm0 45.457c-13.008 0-23.534-10.544-23.534-23.574 0-13.03 10.526-23.674 23.535-23.674S91.796 52.72 91.796 65.65c0 13.13-10.626 23.674-23.635 23.674Z" fill="#525252"/><path d="M58.627 64.954c0-5.371 4.37-9.748 9.732-9.748 5.363 0 9.732 4.377 9.732 9.748 0 5.371-4.37 9.748-9.732 9.748-5.362 0-9.732-4.377-9.732-9.748Z" fill="#F8FAFC"/><path d="M68.359 56.002c-4.866 0-8.839 3.978-8.839 8.852 0 4.874 3.973 8.853 8.839 8.853 4.866 0 8.838-3.979 8.838-8.853s-3.972-8.852-8.838-8.852Zm0 19.595c-5.86 0-10.626-4.774-10.626-10.643 0-5.869 4.767-10.643 10.626-10.643 5.859 0 10.625 4.774 10.625 10.643 0 5.869-4.766 10.643-10.625 10.643Z" fill="#525252"/><path d="M68.162 66.545c-.199 0-.397-.1-.596-.299-.298-.298-.298-.895 0-1.193l45.383-45.856c.298-.298.893-.298 1.191 0 .298.299.298.896 0 1.194L68.758 66.346c-.1.199-.397.199-.596.199Z" fill="#525252"/><path d="m97.158 36.505 12.115-12.135 9.335 2.586-12.016 12.136-9.434-2.587Z" fill="#F8FAFC"/><path d="m98.847 36.008 7.448 2.089 10.626-10.644-7.448-2.088-10.626 10.643Zm7.746 3.88h-.199L97.06 37.3a.896.896 0 0 1-.596-.597c-.1-.298 0-.597.198-.796l12.116-12.135c.198-.199.496-.298.794-.199l9.335 2.586c.298.1.496.299.596.597a.775.775 0 0 1-.199.796l-12.115 12.135c-.199.1-.397.2-.596.2Z" fill="#525252"/><path d="M106.593 14.92 94.577 27.055l2.582 9.35 12.016-12.135-2.582-9.35Z" fill="#F8FAFC"/><path d="m95.569 27.255 2.085 7.46 10.626-10.643-2.086-7.46-10.625 10.643Zm1.588 10.046h-.198a.896.896 0 0 1-.596-.596l-2.582-9.35c-.1-.299 0-.597.199-.796l12.115-12.136c.199-.198.497-.298.794-.198.298.099.497.298.596.596l2.582 9.35c.1.299 0 .597-.198.796L97.753 37.003c-.198.199-.397.298-.596.298Z" fill="#525252"/><path d="m100.734 36.506-1.887-.498 10.626-10.643 1.986.597c0 .199-.099.497-.099.696-.1.398-.596.697-.894.995-.795.696-1.589 1.492-2.483 2.288-2.184 2.089-4.369 4.277-6.753 6.266 0 .1-.297.299-.496.299Z" fill="#F8FAFC"/><path d="M100.237 36.605c-.496 0-.993-.2-1.39-.597l1.887.497c-.199.1-.298.1-.497.1Zm-1.39-.597 10.924-11.14c.198-.2.298-.399.298-.598.794.1 1.489.697 1.489 1.592l-1.986-.597-10.725 10.743Z" fill="#525252"/><path d="M98.846 35.908c-.397-.497-.497-1.094-.199-1.69.199-.498.596-.796.993-1.095.696-.596 1.291-1.094 1.987-1.69 2.383-2.09 4.568-4.377 6.951-6.466.397-.498.894-.697 1.39-.697h.199c0 .2-.1.398-.298.597L98.846 35.908Z" fill="#525252"/></g><defs><clipPath id="a"><path fill="#fff" transform="translate(.932)" d="M0 0h134.161v150H0z"/></clipPath></defs></svg>