<svg width="135" height="150" fill="none" xmlns="http://www.w3.org/2000/svg"><g clip-path="url(#a)"><path d="M53.461 124.967a45.43 45.43 0 0 0-4.996-19.393c-4.996-9.994-13.59-18.008-18.386-28.1-5.596-11.874-3.698-26.22 2.598-35.324 8.793-12.665 24.782-18.304 36.872-17.612 7.595.396 30.078 2.87 37.073 25.231 6.995 22.46-9.793 38.687-15.988 48.186-4.297 6.53-9.593 12.863-10.293 20.581-.2 1.781-.2 3.66-1.199 5.145-1.199 1.781-3.597 2.374-5.695 2.869-3.898.891-7.895 1.781-11.892 1.088-3.797-.593-7.694-3.067-8.094-2.671Z" fill="#F8FAFC"/><path d="M54.359 124.176c.4.099.999.396 1.698.693 1.6.692 3.698 1.583 5.896 1.979 3.797.593 7.694-.297 11.491-1.089 2.199-.494 4.197-.989 5.197-2.572.7-1.089.799-2.474.999-3.958 0-.297 0-.495.1-.792.6-6.629 4.397-12.17 8.094-17.513a41.738 41.738 0 0 0 2.298-3.463c1-1.583 2.398-3.364 3.797-5.244 7.095-9.499 17.887-23.945 12.091-42.25-6.295-19.986-25.48-24.043-36.273-24.636-11.291-.594-27.38 4.55-36.273 17.216-6.595 9.498-7.694 23.746-2.498 34.532 2.398 5.145 5.895 9.795 9.293 14.347 3.198 4.353 6.595 8.806 8.993 13.753 2.998 5.837 4.697 12.467 5.097 18.997Zm10.192 4.552c-1 0-1.998-.099-2.898-.198-2.398-.396-4.796-1.386-6.295-2.078-.6-.297-1.3-.594-1.599-.594h-.5c-.3-.099-.5-.396-.6-.791-.199-6.531-1.898-13.16-4.895-18.998-2.399-4.749-5.696-9.202-8.894-13.456-3.397-4.65-6.995-9.4-9.493-14.644-5.396-11.478-4.297-26.32 2.698-36.412 9.293-13.357 25.581-18.7 37.572-18.008 11.292.693 31.277 4.849 37.872 25.825 5.996 19.195-5.096 34.037-12.39 43.833-1.4 1.88-2.699 3.562-3.698 5.145-.8 1.187-1.599 2.275-2.298 3.463-3.597 5.244-7.195 10.587-7.794 16.721 0 .297 0 .495-.1.792-.1 1.682-.3 3.364-1.2 4.749-1.398 1.979-3.797 2.672-6.295 3.265-2.798.693-5.995 1.386-9.193 1.386Z" fill="#525252"/><path d="M72.048 72.824c-1.499.89-2.998 1.682-7.694-.198-1.799-.693-6.195-4.453-2.898-10.686 1.1-1.979 3.198-3.463 5.496-3.562 2.298-.099 4.097.198 5.596 1.088 2.398 1.386 3.797 4.156 3.597 6.828-.1 2.671-1.698 5.145-4.097 6.53Zm20.085-6.926c-2.498-1.286-4.097-1.089-6.195-1.98-.6-2.077-1.799-5.639-2.398-7.618 1.698-2.177 2.698-2.77 4.197-4.65 0-.297-.3-.495-.5-.792-.6-.593-1.1-1.187-1.699-1.78-2.098-2.079-4.496-3.959-6.995-5.542-1.698 2.177-2.997 4.255-4.296 6.333-2.598-.495-5.296-.594-7.994-.396-.7-2.375-1.6-4.75-2.698-6.926-3.398 1.187-6.696 2.77-9.593 4.947.999 2.177 1.798 3.463 2.997 5.343-1.698 2.276-3.397 4.354-4.596 6.63-2.598-.891-4.697-1.089-7.095-1.98-1.699 3.958-2.598 8.114-1.898 12.17 2.598-.098 4.097-.494 6.395-.79.8 2.572 2.098 5.045 3.697 7.321-1.599 2.078-2.298 3.859-3.697 5.442 1.898 2.87 4.596 5.046 7.594 6.53 1.3-2.078 2.198-3.265 3.398-5.046 2.398.396 5.396 1.088 7.794.99 1.199 2.176 1.499 3.364 2.198 5.54 3.797-.098 7.395-.989 10.892-2.572-.8-2.474-.8-3.958-1.799-5.937 1.8-1.88 3.498-4.353 4.597-6.431 2.498 0 3.498.297 5.696.594 1.299-3.167 1.998-6.333 1.998-9.4Z" fill="#06B6D4"/><path d="M67.749 59.169h-.7c-1.898.099-3.797 1.286-4.696 3.067-1.2 2.177-1.399 4.255-.8 6.036.7 1.88 2.299 3.166 3.198 3.463 4.397 1.781 5.596.99 6.895.297 2.099-1.188 3.597-3.562 3.697-5.937.1-2.474-1.199-4.848-3.197-6.035-1.1-.594-2.498-.891-4.397-.891Zm1.3 15.435c-1.2 0-2.799-.296-4.997-1.187-1.1-.396-3.198-1.88-4.197-4.453-.8-2.275-.5-4.848.9-7.42 1.298-2.375 3.696-3.86 6.195-3.958 2.698-.1 4.496.297 5.995 1.187 2.598 1.484 4.197 4.552 4.097 7.619-.2 2.968-1.898 5.739-4.597 7.322-.999.396-1.998.89-3.397.89Zm-.6 8.609c.3 0 .6.197.799.494 1.1 1.98 1.499 3.265 1.998 5.046 2.998-.198 6.096-.89 9.194-2.077-.2-.693-.3-1.287-.5-1.88-.3-1.089-.5-2.078-1-3.266-.2-.296-.1-.692.2-.989 1.7-1.682 3.398-4.057 4.397-6.233.1-.297.4-.495.8-.495 1.798 0 2.898.099 4.197.297.3 0 .6.099.999.099a20.808 20.808 0 0 0 1.799-7.817c-1-.495-1.899-.693-2.798-.89-.9-.198-1.799-.396-2.798-.891-.2-.099-.4-.297-.5-.594-.4-1.286-1-3.265-1.599-4.947-.3-.99-.6-1.88-.9-2.672-.099-.296 0-.593.1-.791.9-1.187 1.7-1.979 2.4-2.672.499-.494.898-.989 1.398-1.583l-.1-.099c-.6-.593-1.1-1.187-1.699-1.78-1.898-1.88-3.997-3.563-6.195-5.047-1.399 1.98-2.598 3.86-3.797 5.64-.2.297-.5.495-.9.396a28.94 28.94 0 0 0-7.694-.396c-.4 0-.8-.198-.9-.594a55.427 55.427 0 0 0-2.297-5.936c-3.098 1.088-5.796 2.473-7.995 4.155.8 1.682 1.5 2.77 2.499 4.354l.2.297c.2.297.2.692 0 .99l-.8.79a47.671 47.671 0 0 0-3.897 5.64c-.2.396-.6.495-1 .396a107.778 107.778 0 0 0-3.497-.989c-.9-.198-1.898-.495-2.798-.792-1.499 3.661-1.998 7.026-1.599 10.192 1.2-.1 2.099-.198 3.098-.396.8-.099 1.5-.198 2.398-.297.4 0 .8.198.9.594.7 2.276 1.898 4.75 3.597 7.124.2.297.2.692 0 .99-.7.89-1.199 1.78-1.699 2.572-.5.791-.999 1.583-1.599 2.374a19.294 19.294 0 0 0 6.196 5.442c1.2-1.78 1.998-2.968 2.998-4.452.2-.297.5-.396.9-.396l.699.1c2.098.593 4.696 1.087 6.794.989Zm2.198 7.223c-.4 0-.7-.297-.8-.594l-.1-.297c-.5-1.781-.899-2.87-1.698-4.552-2.199 0-4.697-.395-6.695-.791h-.2c-1 1.385-1.799 2.672-3.098 4.551-.2.396-.7.495-1.099.297-3.297-1.583-5.995-3.957-7.894-6.827a.756.756 0 0 1 .1-.99c.7-.89 1.299-1.78 1.898-2.67.4-.694.9-1.386 1.4-2.178-1.4-2.176-2.499-4.254-3.198-6.332-.6.099-1.1.198-1.699.198-1.3.198-2.398.396-4.097.495-.4 0-.8-.297-.9-.693-.699-3.859-.1-8.114 1.9-12.665.2-.396.699-.594 1.099-.495 1.199.396 2.298.693 3.497.99.9.198 1.898.494 2.998.791 1.099-1.78 2.398-3.463 3.697-5.244l.3-.396c-1-1.583-1.799-2.869-2.698-4.947-.2-.396-.1-.791.3-.99 2.698-2.077 5.995-3.76 9.792-5.045.4-.1.9.099 1.1.494.999 2.078 1.798 4.255 2.497 6.432a26.88 26.88 0 0 1 6.895.297c1.2-1.88 2.499-3.86 3.998-5.937.3-.396.799-.495 1.199-.198 2.598 1.583 4.996 3.562 7.194 5.739.6.593 1.2 1.187 1.699 1.78.3.298.7.693.7 1.188 0 .198 0 .495-.2.693-.7.89-1.3 1.484-1.899 2.078-.6.593-1.2 1.286-1.999 2.176.2.693.5 1.386.7 2.177.5 1.583 1.1 3.364 1.499 4.65.7.297 1.399.396 2.098.594 1.1.198 2.299.495 3.698 1.286.3.198.5.495.5.792-.1 3.562-.8 6.728-2.2 9.697-.199.296-.499.494-.898.494-.6-.099-1.2-.198-1.7-.198-1.098-.198-1.998-.296-3.397-.296-.999 1.979-2.498 4.056-4.097 5.738.4 1.089.7 1.98.9 3.068.2.791.4 1.583.7 2.473.1.396-.1.89-.5 1.089-3.798 1.088-7.595 1.978-11.292 2.078Z" fill="#525252"/><path d="M84.337 114.776s-35.274-.495-35.274-.099c-.5 7.124-.1 14.446 1.3 21.471.699 3.562 2.298 12.071 15.188 12.764 10.193.593 14.89-5.046 16.288-10.884 1.599-6.629 2.498-15.238 2.498-23.252Z" fill="#F8FAFC"/><path d="M49.864 115.468c-.4 6.827 0 13.753 1.399 20.482.7 3.76 2.198 11.378 14.39 12.071 11.49.693 14.588-6.926 15.388-10.191 1.499-6.234 2.398-14.347 2.398-22.263-12.39-.099-29.978-.198-33.575-.099Zm17.187 34.433h-1.599c-13.59-.792-15.288-9.697-15.988-13.457-1.399-7.223-1.799-14.445-1.299-21.767.1-.891.6-.891 2.398-.891h3.997c2.898 0 6.995 0 12.091.099 8.694.099 17.587.198 17.687.198.5 0 .9.396.9.89 0 8.312-.8 16.821-2.498 23.45-.9 3.463-4.097 11.478-15.689 11.478Z" fill="#525252"/><path d="M72.645 120.91c-6.795 0-13.59-.198-20.285-.495-.2 0-.3-.099-.3-.297 0-.198.1-.297.3-.297 9.493.495 19.086.693 28.48.495.2 0 .299.099.299.297 0 .198-.1.297-.3.297-2.698-.099-5.496 0-8.194 0ZM62.554 126.254c-3.298 0-6.495-.099-9.793-.198-.2 0-.3-.099-.3-.297 0-.198.1-.297.3-.297 9.193.297 18.486.198 27.58-.396.2 0 .3.099.3.297 0 .198-.1.297-.3.297-5.896.396-11.892.594-17.787.594ZM53.36 131.597c-.2 0-.3-.099-.3-.297 0-.198.1-.297.3-.297l26.38-.594c.2 0 .3.099.3.297 0 .198-.1.297-.3.297l-26.38.594ZM62.853 136.741H54.56c-.2 0-.3-.099-.3-.296 0-.198.1-.297.3-.297 7.995.099 15.989 0 23.983-.099.2 0 .3.099.3.297 0 .198-.1.297-.3.297-5.196 0-10.492.098-15.689.098ZM64.453 141.293c-2.798 0-5.596 0-8.294-.099-.2 0-.3-.099-.3-.297 0-.198.1-.297.3-.297 6.995.198 13.99.198 20.985-.198.2 0 .3.099.3.297 0 .198-.1.297-.3.297-4.197.198-8.394.297-12.691.297ZM66.752 145.449c-2.398 0-4.796-.099-7.194-.198-.2 0-.3-.099-.3-.297 0-.198.1-.297.3-.297 4.396.297 8.893.297 13.29.099.2 0 .3.099.3.297 0 .198-.1.297-.3.297-1.999 0-3.997.099-6.096.099Z" fill="#525252"/><path d="M65.252 150c-1.1 0-2.299-.098-3.498-.395-.899-.198-1.798-.594-2.598-.99 1.799.594 3.897 1.089 6.396 1.188H67.45c-.8.197-1.499.197-2.198.197ZM67.052 148.121h-1.4c-7.094-.396-10.592-3.166-12.39-6.135.4-.494.999-.89 1.699-.89.4 0 .799.099 1.199.297 3.297 1.781 4.396 2.374 5.695 2.77.6.297 1.5.396 2.299.396 1.998 0 4.297-.594 5.196-1.089a11.597 11.597 0 0 0 3.297-2.275c1.5 0 2.998-.099 4.497-.198.2 0 .3-.099.3-.297 0-.099-.1-.297-.3-.297-1.299.099-2.598.099-3.797.198 1.399-1.385 2.598-2.968 3.198-3.958h2.098c.2 0 .3-.099.3-.297 0-.197-.1-.296-.3-.296h-1.799c.6-1.682 1.3-3.266 1.699-4.948h1.2c.199 0 .299-.099.299-.296 0-.099-.1-.297-.3-.297h-1.1c.1-.297.1-.594.2-.891.1-1.286.3-2.572.3-3.859.4 0 .8-.099 1.2-.099.2 0 .3-.099.3-.296 0-.198-.1-.297-.3-.297-.4 0-.8 0-1.1.099.1-1.386.2-2.771.3-4.255h1.4c.2 0 .299-.099.299-.297 0-.198-.1-.297-.3-.297h-1.299c.1-1.385.2-2.77.3-4.353v-.297h3.597c0 7.916-.899 15.93-2.398 22.263-.2.89-.6 2.077-1.299 3.364-.9 1.385-1.899 2.671-2.998 3.76-2.198 1.682-5.296 3.067-9.792 3.067Zm-7.495-3.463c-.2 0-.3.099-.3.297 0 .197.1.296.3.296 2.398.099 4.796.198 7.195.198 2.098 0 4.097 0 6.195-.099.2 0 .3-.099.3-.296 0-.198-.1-.297-.3-.297-1.998.099-4.097.099-6.095.099-2.499 0-4.897-.099-7.295-.198Z" fill="#F8FAFC"/><path d="M67.05 149.901h-1.599c-2.498-.198-4.696-.594-6.395-1.188-.4-.198-.9-.494-1.199-.791 0 0 .1.099.2.099-1.399-.891-2.698-1.781-4.097-2.672-1.399-.89-1.399-2.375-.6-3.364 1.8 2.968 5.297 5.739 12.391 6.135h1.4c4.596 0 7.694-1.386 9.792-3.167-2.598 2.672-5.796 4.354-9.393 4.849-.3.099-.4.099-.5.099Zm12.69-8.708c.7-1.286 1-2.473 1.3-3.364 1.499-6.233 2.398-14.347 2.398-22.262h-3.597c.1-.396.2-.792.5-1.089h.599c.2 0 .4 0 .6-.099 0-.197.1-.395.1-.494h.3c.699 0 1.498.396 1.798 1.187.3.396.2.99.1 1.484-.1 1.385-.1 2.771-.2 4.156-.1 1.187-.1 2.375-.2 3.562.2.594 0 1.088 0 1.583-.1 2.869-.1 2.771-.5 5.343-.2 1.484-.999 5.442-2.398 8.41-.1.594-.5 1.089-.8 1.583Z" fill="#525252"/><path d="M79.441 120.811v-.593h1.3c.2 0 .3.099.3.297 0 .197-.1.296-.3.296h-1.3ZM79.14 125.659v-.593c.4 0 .8 0 1.1-.099.2 0 .3.099.3.297 0 .198-.1.296-.3.296-.3.099-.7.099-1.1.099ZM78.541 131.003c0-.198.1-.396.1-.594h1.1c.1 0 .299.099.299.297 0 .198-.1.297-.3.297h-1.199ZM76.443 136.643l.3-.594h1.799c.2 0 .3.099.3.297 0 .198-.1.297-.3.297-.7-.099-1.4 0-2.099 0ZM72.644 141.194l.6-.594c1.3 0 2.598-.099 3.797-.198.1 0 .3.099.3.297 0 .198-.1.297-.3.297-1.399.099-2.898.099-4.397.198ZM66.752 145.449c-2.398 0-4.796-.099-7.194-.198-.2 0-.3-.099-.3-.297 0-.198.1-.297.3-.297 2.398.099 4.796.198 7.194.198 1.999 0 4.097 0 6.096-.099.1 0 .3.099.3.297 0 .198-.1.297-.3.297-1.999 0-3.997.099-6.096.099ZM67.55 13.654c-.5 0-.9-.396-.9-.89 0-4.058.1-8.114.5-12.072 0-.495.5-.792.9-.792.599.1.899.594.899.99-.4 3.958-.5 7.915-.5 11.873 0 .495-.4.89-.9.89ZM111.518 28.497c-.2 0-.499-.1-.599-.297-.3-.396-.3-.89.1-1.188 2.997-2.671 5.795-5.738 8.294-8.905.299-.395.799-.395 1.199-.098.399.296.399.791.1 1.187-2.598 3.265-5.396 6.332-8.494 9.103-.2.099-.4.198-.6.198ZM134.1 66.887l-11.191-.495c-.5 0-.9-.396-.8-.89 0-.495.4-.792.899-.792l11.192.495c.5 0 .9.395.8.89 0 .396-.4.792-.9.792ZM115.214 109.433c-.2 0-.3 0-.5-.099l-9.393-6.135c-.399-.296-.499-.791-.199-1.187.299-.396.799-.495 1.199-.198l9.393 6.135c.399.297.499.791.2 1.187-.2.099-.4.297-.7.297ZM23.585 28.398c-.2 0-.4-.1-.6-.198-3.097-2.77-5.995-5.838-8.493-9.103-.3-.396-.2-.89.1-1.187.4-.297.899-.198 1.199.099 2.498 3.166 5.296 6.134 8.293 8.905.4.296.4.89.1 1.187-.2.198-.4.297-.6.297ZM.9 66.689c-.5 0-.8-.396-.9-.792 0-.495.4-.89.8-.89l11.191-.495c.5 0 .9.395.9.791 0 .495-.4.89-.8.89L.899 66.69ZM17.887 109.235c-.3 0-.6-.099-.699-.396-.3-.396-.2-.89.2-1.187l9.393-6.135c.4-.297.9-.198 1.199.198.3.396.2.891-.2 1.188l-9.393 6.134c-.1.198-.3.198-.5.198Z" fill="#525252"/><path d="M80.54 113.885c-3.397 0-8.693-.099-13.89-.099-5.095 0-9.192-.099-12.09-.099H52.66c-.8-2.969-1.898-5.838-3.297-8.51-1.1-2.275-2.399-4.353-3.798-6.431 2.898 2.177 5.996 4.156 9.293 5.739 1.4.692 3.398 1.385 5.796 2.276.7.197 1.4.395 2.798.692.9.099 1.899.198 2.898.198 1.499 0 3.198-.198 4.896-.594 2.499-.494 5.396-2.572 8.494-4.848.3-.198.8-.594.9-.693l.1-.099c.2-.197 1.398-1.187 1.698-1.385.4-.297.7-.593 1-.89a75.486 75.486 0 0 1 3.697-4.255c1.499-1.484 2.898-3.067 4.596-4.452l3.298-3.266a301.342 301.342 0 0 0 7.394-7.915c-2.698 5.046-5.895 9.4-8.593 12.962a202.936 202.936 0 0 0-3.797 5.244c-.7 1.187-1.5 2.275-2.299 3.463-2.798 4.056-5.696 8.311-7.195 12.962Z" fill="#F8FAFC"/><path d="M81.64 113.886h-1.1c1.5-4.651 4.397-8.905 7.195-13.061a41.773 41.773 0 0 0 2.298-3.463c1-1.583 2.399-3.364 3.797-5.244 2.698-3.661 5.996-8.015 8.594-12.962.999-1.088 1.899-2.177 2.698-3.067-.999 2.078-1.998 4.156-3.098 6.233-.199.495-.499.99-.699 1.484-3.997 6.135-9.093 11.478-13.29 17.316-2.398 3.265-4.597 6.728-6.196 10.488-.2.396-.2.89.2 1.286-.2.297-.3.693-.4.99Zm-29.479-.198c-.2-.297-.3-.594-.5-.891-2.797-6.332-4.396-10.686-7.294-15.04l1.2.891a60.313 60.313 0 0 1 3.797 6.432c1.399 2.77 2.498 5.541 3.297 8.509-.2.099-.4.099-.5.099Z" fill="#525252"/><path d="M58.356 115.27h-1.599c-1.1 0-2.098-.297-3.198-.297h-.4c-.2 0-.299 0-.399-.099-.1-.099-.1-.198-.2-.396-.2-.296-.3-.593-.5-.89h2.399c2.898 0 6.995 0 12.09.099 5.197 0 10.493.099 13.89.099h1.1c-.5.099-.9.297-1.2.593-.2 0-.4.099-.499.099-.3.099-.6.099-1.3.099h-.299c-1-.198-2.398-.395-4.397-.395-.7 0-1.498 0-2.298.098-2.998 0-5.995.594-9.093.693-1.3.297-2.698.297-4.097.297ZM80.342 114.578c.3-.297.8-.594 1.2-.594-.1.198-.1.396-.1.495-.2 0-.4.099-.6.099h-.5Z" fill="#525252"/><path d="M69.448 88.753c-.2-.297-.3-.594-.3-.99.1.297.2.693.3.99Z" fill="#F8FAFC"/><path d="M71.246 88.655c-.3-1.088-.6-1.979-1.1-3.067.1-.1.2-.1.3-.198.3-.198.7-.198 1-.198H72.245c2.298 0 1.499.099 3.297-.396 1.2-.198 2.499-.99 3.798-.99h.4c.1.198.1.495.2.693.1.594.299 1.188.499 1.88-3.098 1.484-6.096 2.177-9.193 2.276Z" fill="#06B6D4"/><path d="M72.347 89.94h-.9c-.899 0-1.598-.494-1.898-1.187-.1-.297-.2-.593-.3-.99-.1-.79.2-1.681 1-2.176.399.99.699 1.979 1.099 3.067 2.997-.198 6.095-.89 9.193-2.078-.2-.692-.3-1.286-.5-1.88-.1-.197-.1-.494-.2-.692h.1c1.799.396 2.298 2.968.8 4.057-.9.593-1.999.791-2.998 1.088-1.799.495-3.598.792-5.396.792Z" fill="#525252"/><path d="M89.534 74.208c-.4 0-.699-.1-.999-.1-.6-.098-1.199-.197-1.798-.197 0-.495.4-.89.6-1.385.898-1.682.798-1.484 1.298-2.672.3-.89.6-1.78.8-2.77.1-.396.1-.792.3-1.188.499.1.999.297 1.598.594-.2 2.77-.8 5.343-1.799 7.718Z" fill="#06B6D4"/><path d="M92.932 67.777c.1-.594.1-1.187.1-1.78 0 .098.1.197.1.296 0 .495-.1.99-.2 1.484Z" fill="#F8FAFC"/><path d="M88.534 75.792c-1 0-1.999-.792-1.799-1.98.6.1 1.2.1 1.799.199.3 0 .6.099.999.099a20.806 20.806 0 0 0 1.799-7.817c-.6-.198-1.1-.396-1.6-.594.1-.198.2-.395.4-.494.3-.396.8-.495 1.2-.495.799 0 1.498.495 1.698 1.187 0 .594-.1 1.188-.1 1.781-.2.693-.4 1.287-.6 1.98-.599 1.78-1.298 3.561-2.297 5.243-.3.693-.9.89-1.5.89Z" fill="#525252"/></g><defs><clipPath id="a"><path fill="#fff" d="M0 0h135v150H0z"/></clipPath></defs></svg>