<svg width="84" height="49" fill="none" xmlns="http://www.w3.org/2000/svg"><path d="M18.733 35.074v.777h-2.855v-.777h2.855Zm-2.582-4.91v5.687h-.98v-5.687h.98ZM20.405 31.625v4.226h-.945v-4.226h.945Zm-1.008-1.11c0-.143.047-.262.141-.355a.538.538 0 0 1 .399-.145c.166 0 .298.048.394.145a.475.475 0 0 1 .145.355.47.47 0 0 1-.145.352.542.542 0 0 1-.394.14.547.547 0 0 1-.399-.14.477.477 0 0 1-.14-.352ZM22.71 35.851h-.941v-4.633c0-.315.058-.58.175-.793.12-.216.29-.379.512-.488a1.72 1.72 0 0 1 .785-.168c.094 0 .186.007.278.02.09.01.18.027.265.05l-.023.727a1.082 1.082 0 0 0-.172-.027 2.267 2.267 0 0 0-.195-.008.788.788 0 0 0-.371.082.54.54 0 0 0-.235.23.815.815 0 0 0-.078.375v4.633Zm.871-4.226v.687h-2.46v-.687h2.46ZM26.034 35.93c-.312 0-.595-.052-.847-.153a1.872 1.872 0 0 1-.641-.434 1.923 1.923 0 0 1-.402-.652c-.094-.25-.141-.52-.141-.809v-.156c0-.33.048-.63.145-.898a2.04 2.04 0 0 1 .402-.688 1.73 1.73 0 0 1 .61-.441c.234-.102.488-.153.761-.153.302 0 .566.051.793.153.227.101.414.244.562.43.151.182.264.4.336.652.076.252.114.531.114.836v.402H24.46v-.676h2.336v-.074a1.322 1.322 0 0 0-.102-.477.81.81 0 0 0-.277-.359c-.125-.091-.292-.137-.5-.137a.849.849 0 0 0-.418.102.827.827 0 0 0-.3.285c-.081.125-.144.276-.188.453a2.55 2.55 0 0 0-.063.59v.156c0 .185.025.357.075.516.052.156.127.293.226.41.1.117.219.21.36.277.14.066.3.098.48.098.227 0 .428-.045.605-.137.178-.09.331-.22.461-.386l.496.48a1.78 1.78 0 0 1-.89.676c-.209.075-.45.113-.727.113ZM30.355 33.046v.75h-2.067v-.75h2.067ZM34.632 34h.977a2.254 2.254 0 0 1-.313.996 1.86 1.86 0 0 1-.746.683c-.32.167-.71.25-1.168.25-.352 0-.668-.062-.95-.187a2.081 2.081 0 0 1-.722-.54 2.439 2.439 0 0 1-.46-.847c-.105-.33-.157-.7-.157-1.11v-.472c0-.409.053-.779.16-1.11.11-.33.266-.613.469-.847.203-.237.446-.418.73-.543.287-.125.608-.188.965-.188.453 0 .836.084 1.148.25.313.167.555.398.727.692.175.294.281.631.32 1.012h-.976a1.803 1.803 0 0 0-.172-.63.886.886 0 0 0-.383-.398c-.17-.093-.39-.14-.664-.14-.224 0-.42.041-.586.125a1.105 1.105 0 0 0-.418.367c-.112.161-.196.36-.254.597a3.558 3.558 0 0 0-.082.805v.48c0 .287.025.547.074.782.052.232.13.43.235.597.107.167.242.296.406.387.164.091.36.137.59.137.279 0 .504-.044.676-.133a.885.885 0 0 0 .394-.387 1.77 1.77 0 0 0 .18-.629ZM36.226 33.785v-.09c0-.305.044-.587.133-.848.088-.263.216-.49.382-.683.17-.196.375-.347.617-.454.245-.109.521-.164.829-.164.31 0 .586.055.828.164.245.107.452.258.62.454.17.192.299.42.388.683.088.26.132.543.132.848v.09c0 .304-.044.587-.133.847-.088.26-.217.489-.386.684-.17.193-.375.344-.617.453-.243.107-.517.16-.825.16-.31 0-.587-.053-.832-.16a1.791 1.791 0 0 1-.617-.453 2.027 2.027 0 0 1-.386-.684 2.615 2.615 0 0 1-.133-.847Zm.941-.09v.09c0 .19.02.37.059.539.039.169.1.317.183.445.084.128.19.228.32.3.13.074.286.11.465.11a.898.898 0 0 0 .453-.11.908.908 0 0 0 .32-.3c.084-.128.145-.276.184-.445.042-.17.063-.35.063-.54v-.09c0-.187-.02-.364-.063-.53a1.362 1.362 0 0 0-.187-.45.895.895 0 0 0-.777-.418.902.902 0 0 0-.461.114.906.906 0 0 0-.317.304c-.083.13-.144.28-.183.45a2.32 2.32 0 0 0-.059.53ZM43.327 35.003v-2.015a.864.864 0 0 0-.082-.39.574.574 0 0 0-.25-.255.855.855 0 0 0-.414-.09.939.939 0 0 0-.398.078.644.644 0 0 0-.262.211.509.509 0 0 0-.094.301h-.937c0-.166.04-.328.12-.484.082-.156.199-.296.352-.418.154-.122.338-.219.551-.29.214-.07.453-.105.719-.105.318 0 .599.054.844.16.247.107.441.269.582.485.143.213.215.482.215.805v1.878c0 .193.013.366.039.52.028.151.069.283.12.395v.062h-.964a1.67 1.67 0 0 1-.106-.387 3.15 3.15 0 0 1-.035-.46Zm.137-1.722.008.582h-.676c-.175 0-.328.017-.461.05a.945.945 0 0 0-.332.141.61.61 0 0 0-.266.527c0 .112.026.215.078.31a.547.547 0 0 0 .227.214.796.796 0 0 0 .367.078c.193 0 .36-.039.504-.117.146-.08.26-.178.344-.293a.638.638 0 0 0 .133-.332l.304.418a1.428 1.428 0 0 1-.16.344c-.075.122-.174.24-.297.351a1.474 1.474 0 0 1-1.011.375c-.276 0-.523-.055-.739-.164a1.312 1.312 0 0 1-.507-.45 1.165 1.165 0 0 1-.184-.644c0-.224.042-.422.125-.593.086-.175.21-.32.375-.438.167-.117.37-.206.61-.266a3.26 3.26 0 0 1 .82-.093h.738ZM46.983 35.18a.93.93 0 0 0 .415-.09.784.784 0 0 0 .3-.259.703.703 0 0 0 .13-.378h.886a1.32 1.32 0 0 1-.242.746 1.68 1.68 0 0 1-.621.535 1.87 1.87 0 0 1-.856.195c-.323 0-.604-.055-.844-.164a1.668 1.668 0 0 1-.597-.46 2.028 2.028 0 0 1-.36-.677 2.79 2.79 0 0 1-.117-.82v-.137c0-.291.04-.565.117-.82.081-.258.2-.484.36-.68a1.63 1.63 0 0 1 .597-.457c.24-.112.52-.168.84-.168.339 0 .636.068.89.204a1.5 1.5 0 0 1 .602.558c.149.237.226.513.23.828h-.886a.944.944 0 0 0-.117-.422.773.773 0 0 0-.289-.304.824.824 0 0 0-.441-.114.877.877 0 0 0-.473.118.789.789 0 0 0-.293.312c-.07.13-.121.277-.152.441-.029.162-.043.33-.043.504v.137c0 .175.014.344.043.508.028.164.078.311.148.441.073.128.172.23.297.309a.91.91 0 0 0 .477.113ZM50.366 29.851v6h-.937v-6h.937Zm-.164 3.73-.304-.003c.002-.292.042-.562.12-.809.081-.247.193-.462.337-.645a1.495 1.495 0 0 1 1.199-.578c.208 0 .396.029.562.086.17.058.315.15.438.278.122.125.215.289.277.492.065.2.098.445.098.734v2.715h-.946v-2.723c0-.203-.03-.364-.09-.484a.52.52 0 0 0-.253-.258.928.928 0 0 0-.41-.082.96.96 0 0 0-.45.102.938.938 0 0 0-.32.277 1.28 1.28 0 0 0-.195.406 1.876 1.876 0 0 0-.063.492ZM54.89 31.625v4.226h-.946v-4.226h.946Zm-1.008-1.11c0-.143.047-.262.14-.355a.538.538 0 0 1 .399-.145c.167 0 .298.048.395.145a.475.475 0 0 1 .144.355.47.47 0 0 1-.145.352.542.542 0 0 1-.394.14.547.547 0 0 1-.398-.14.477.477 0 0 1-.141-.352ZM56.855 32.527v3.324h-.942v-4.226h.887l.055.902Zm-.168 1.054-.305-.003c.003-.3.044-.575.125-.825.083-.25.198-.464.344-.644.148-.18.325-.318.53-.414.207-.1.436-.149.688-.149.203 0 .387.029.551.086.167.055.309.145.426.27.12.125.21.288.273.488.063.198.094.441.094.73v2.731h-.945v-2.734c0-.203-.03-.364-.09-.48a.503.503 0 0 0-.254-.255.952.952 0 0 0-.41-.078.91.91 0 0 0-.434.102.975.975 0 0 0-.324.277 1.345 1.345 0 0 0-.2.406c-.046.154-.07.318-.07.492ZM63.081 31.625h.856v4.109c0 .38-.081.703-.243.969a1.556 1.556 0 0 1-.675.605 2.357 2.357 0 0 1-2.113-.086 1.415 1.415 0 0 1-.458-.402l.442-.555c.15.18.317.311.5.395.182.083.373.125.574.125.216 0 .4-.04.55-.121a.818.818 0 0 0 .356-.348c.084-.154.125-.341.125-.563v-3.172l.086-.957Zm-2.871 2.16v-.082c0-.32.04-.612.117-.875.078-.266.19-.494.336-.684.146-.193.323-.34.531-.441a1.56 1.56 0 0 1 .707-.157c.274 0 .507.05.7.149.195.099.358.24.488.426.13.182.232.4.305.656.075.252.131.534.168.844v.261a4.224 4.224 0 0 1-.172.828c-.081.25-.188.467-.32.649a1.367 1.367 0 0 1-.493.422c-.192.099-.42.148-.683.148a1.51 1.51 0 0 1-.7-.16 1.59 1.59 0 0 1-.53-.45 2.126 2.126 0 0 1-.337-.679 2.993 2.993 0 0 1-.117-.855Zm.941-.082v.082c0 .192.019.372.055.539.04.166.098.314.176.441a.92.92 0 0 0 .305.297c.125.07.272.105.441.105a.961.961 0 0 0 .543-.14.91.91 0 0 0 .328-.38c.078-.16.133-.34.164-.538v-.707a1.728 1.728 0 0 0-.097-.43 1.152 1.152 0 0 0-.192-.348.799.799 0 0 0-.305-.234 1.014 1.014 0 0 0-.433-.086.86.86 0 0 0-.442.11.895.895 0 0 0-.308.3 1.488 1.488 0 0 0-.176.446c-.039.169-.059.35-.059.543ZM22.729 14.79c0 .443-.09.875-.27 1.295-.168.408-.42.762-.756 1.062a2.38 2.38 0 0 1-1.188.558c.6.084 1.104.294 1.511.63.42.324.739.732.954 1.224.229.492.343 1.032.343 1.62 0 .78-.145 1.416-.433 1.908-.288.48-.678.852-1.17 1.116a5.466 5.466 0 0 1-1.655.522c-.613.084-1.237.126-1.873.126H14.63V12.935c0-.012-.024-.108-.072-.288a47.21 47.21 0 0 1-.109-.558 4.17 4.17 0 0 0-.072-.342h4.374c.517 0 1.009.048 1.477.144.48.084.905.24 1.277.468.384.228.684.54.9.936.216.384.325.882.325 1.494Zm-1.746.035c0-.48-.108-.852-.325-1.116a1.622 1.622 0 0 0-.828-.558 3.809 3.809 0 0 0-1.133-.162h-2.395v4.176h1.927c.564 0 1.05-.072 1.457-.216.409-.144.727-.384.954-.72.229-.348.343-.816.343-1.404Zm.558 6.084c0-.612-.163-1.098-.486-1.458a2.533 2.533 0 0 0-1.224-.792 4.702 4.702 0 0 0-1.53-.252h-1.998v5.202H18.3c.636 0 1.194-.072 1.674-.216a2.15 2.15 0 0 0 1.152-.828c.276-.396.415-.948.415-1.656ZM29.015 15.69c.72 0 1.326.15 1.818.45.492.287.858.695 1.098 1.223.252.516.378 1.122.378 1.818 0 .168-.012.342-.036.522-.012.168-.03.348-.054.54h-5.688c0 1.14.252 2.022.756 2.646.504.624 1.176.936 2.016.936.348 0 .708-.054 1.08-.162.384-.108.78-.27 1.188-.486l.558.9a4.38 4.38 0 0 1-1.422.756 5.255 5.255 0 0 1-1.602.252c-.708 0-1.326-.126-1.854-.378a3.952 3.952 0 0 1-1.296-1.044 4.74 4.74 0 0 1-.756-1.494 5.78 5.78 0 0 1-.252-1.692c0-.6.084-1.182.252-1.746.168-.564.42-1.074.756-1.53a3.739 3.739 0 0 1 1.278-1.098c.504-.276 1.098-.414 1.782-.414Zm-.144 1.133c-.408 0-.768.114-1.08.342a2.574 2.574 0 0 0-.756.882 3.67 3.67 0 0 0-.396 1.08h4.104c.012-.504-.06-.924-.216-1.26-.144-.348-.36-.606-.648-.774-.276-.18-.612-.27-1.008-.27ZM46.828 14.79c0 .443-.09.875-.27 1.295-.168.408-.42.762-.756 1.062a2.38 2.38 0 0 1-1.188.558c.6.084 1.104.294 1.512.63.42.324.738.732.954 1.224.228.492.342 1.032.342 1.62 0 .78-.144 1.416-.432 1.908-.288.48-.678.852-1.17 1.116a5.466 5.466 0 0 1-1.656.522c-.612.084-1.236.126-1.872.126h-3.564V12.935c0-.012-.024-.108-.072-.288a47.21 47.21 0 0 1-.108-.558 4.17 4.17 0 0 0-.072-.342h4.374c.516 0 1.008.048 1.476.144.48.084.906.24 1.278.468.384.228.684.54.9.936.216.384.324.882.324 1.494Zm-1.746.035c0-.48-.108-.852-.324-1.116a1.622 1.622 0 0 0-.828-.558 3.809 3.809 0 0 0-1.134-.162h-2.394v4.176h1.926c.564 0 1.05-.072 1.458-.216.408-.144.726-.384.954-.72.228-.348.342-.816.342-1.404Zm.558 6.084c0-.612-.162-1.098-.486-1.458a2.533 2.533 0 0 0-1.224-.792 4.702 4.702 0 0 0-1.53-.252h-1.998v5.202H42.4c.636 0 1.194-.072 1.674-.216a2.15 2.15 0 0 0 1.152-.828c.276-.396.414-.948.414-1.656ZM53.115 15.69c.72 0 1.326.15 1.818.45.492.287.858.695 1.098 1.223.252.516.378 1.122.378 1.818 0 .168-.012.342-.036.522-.012.168-.03.348-.054.54H50.63c0 1.14.252 2.022.756 2.646.504.624 1.176.936 2.016.936.348 0 .708-.054 1.08-.162.384-.108.78-.27 1.188-.486l.558.9a4.38 4.38 0 0 1-1.422.756 5.255 5.255 0 0 1-1.602.252c-.708 0-1.326-.126-1.854-.378a3.952 3.952 0 0 1-1.296-1.044 4.74 4.74 0 0 1-.756-1.494 5.78 5.78 0 0 1-.252-1.692c0-.6.084-1.182.252-1.746.168-.564.42-1.074.756-1.53a3.739 3.739 0 0 1 1.278-1.098c.504-.276 1.098-.414 1.782-.414Zm-.144 1.133c-.408 0-.768.114-1.08.342a2.574 2.574 0 0 0-.756.882 3.67 3.67 0 0 0-.396 1.08h4.104c.012-.504-.06-.924-.216-1.26-.144-.348-.36-.606-.648-.774-.276-.18-.612-.27-1.008-.27ZM60.695 13.35a30.76 30.76 0 0 0-.234 1.277c-.06.432-.102.858-.126 1.278h2.34l-.306 1.134h-2.034v5.724c0 .228.024.432.072.612.06.168.156.3.288.396.144.084.342.126.594.126.192 0 .384-.018.576-.054.192-.036.378-.078.558-.126l.252 1.008c-.3.084-.588.156-.864.216-.264.072-.57.108-.918.108-.768 0-1.302-.204-1.602-.612-.3-.408-.45-.978-.45-1.71V17.04H57.51v-.9c.36-.012.66-.108.9-.288s.438-.408.594-.684c.156-.288.282-.588.378-.9.096-.324.168-.63.216-.918h1.098ZM66.584 13.35a30.76 30.76 0 0 0-.234 1.277c-.06.432-.102.858-.126 1.278h2.34l-.306 1.134h-2.034v5.724c0 .228.024.432.072.612.06.168.156.3.288.396.144.084.342.126.594.126.192 0 .384-.018.576-.054.192-.036.378-.078.558-.126l.252 1.008c-.3.084-.588.156-.864.216-.264.072-.57.108-.918.108-.768 0-1.302-.204-1.602-.612-.3-.408-.45-.978-.45-1.71V17.04h-1.332v-.9c.36-.012.66-.108.9-.288s.438-.408.594-.684c.156-.288.282-.588.378-.9.096-.324.168-.63.216-.918h1.098ZM73.523 15.69c.72 0 1.326.15 1.818.45.492.287.858.695 1.098 1.223.252.516.378 1.122.378 1.818 0 .168-.012.342-.036.522-.012.168-.03.348-.054.54h-5.688c0 1.14.252 2.022.756 2.646.504.624 1.176.936 2.016.936.348 0 .708-.054 1.08-.162.384-.108.78-.27 1.188-.486l.558.9a4.38 4.38 0 0 1-1.422.756 5.255 5.255 0 0 1-1.602.252c-.708 0-1.326-.126-1.854-.378a3.952 3.952 0 0 1-1.296-1.044 4.74 4.74 0 0 1-.756-1.494 5.78 5.78 0 0 1-.252-1.692c0-.6.084-1.182.252-1.746.168-.564.42-1.074.756-1.53a3.739 3.739 0 0 1 1.278-1.098c.504-.276 1.098-.414 1.782-.414Zm-.144 1.133c-.408 0-.768.114-1.08.342a2.574 2.574 0 0 0-.756.882 3.67 3.67 0 0 0-.396 1.08h4.104c.012-.504-.06-.924-.216-1.26-.144-.348-.36-.606-.648-.774-.276-.18-.612-.27-1.008-.27ZM80.06 15.743c.215.528.353 1.086.413 1.674a3.681 3.681 0 0 1 1.26-1.206 3.24 3.24 0 0 1 1.674-.468l-.36 1.584c-.576 0-1.068.15-1.476.45-.396.3-.75.678-1.061 1.134v5.94h-1.495v-6.48c0-.24-.018-.51-.054-.81a5.474 5.474 0 0 0-.18-.882 2.468 2.468 0 0 0-.342-.738l1.62-.198Z"/><mask id="a" fill="#fff"><path d="M39.352 43.447c-.386.302-.781.6-1.19.882-.41.283-.827.553-1.243.805-5.73 3.476-12.33 4.293-18.37 2.805A24.304 24.304 0 0 1 3.541 36.91a24.304 24.304 0 0 1-2.85-18.404C2.163 12.462 5.938 6.985 11.666 3.51A24.166 24.166 0 0 1 25.818.053c4.86.32 9.62 2.094 13.604 5.28l-.22.277A23.898 23.898 0 0 0 11.848 3.82C6.204 7.246 2.485 12.645 1.038 18.596a23.937 23.937 0 0 0 2.809 18.13 23.949 23.949 0 0 0 14.783 10.867c5.953 1.466 12.453.66 18.098-2.765.42-.255.83-.52 1.226-.796.397-.275.79-.565 1.174-.872l.225.287Z"/></mask><path d="M39.352 43.447c-.386.302-.781.6-1.19.882-.41.283-.827.553-1.243.805-5.73 3.476-12.33 4.293-18.37 2.805A24.304 24.304 0 0 1 3.541 36.91a24.304 24.304 0 0 1-2.85-18.404C2.163 12.462 5.938 6.985 11.666 3.51A24.166 24.166 0 0 1 25.818.053c4.86.32 9.62 2.094 13.604 5.28l-.22.277A23.898 23.898 0 0 0 11.848 3.82C6.204 7.246 2.485 12.645 1.038 18.596a23.937 23.937 0 0 0 2.809 18.13 23.949 23.949 0 0 0 14.783 10.867c5.953 1.466 12.453.66 18.098-2.765.42-.255.83-.52 1.226-.796.397-.275.79-.565 1.174-.872l.225.287Z"/><path d="m39.352 43.447 1.234 1.573 1.575-1.235-1.236-1.574-1.573 1.236Zm-2.433 1.687 1.037 1.71-1.037-1.71ZM11.665 3.51l1.038 1.71-1.038-1.71ZM25.818.053l-.132 1.996.132-1.996Zm13.604 5.28 1.565 1.246 1.242-1.56-1.557-1.247-1.25 1.562Zm-.22.277-1.249 1.562 1.566 1.252 1.248-1.569-1.565-1.245ZM25.797.403l.13-1.996h-.001L25.797.403ZM11.85 3.821l1.037 1.71-1.037-1.71ZM1.037 18.596l1.943.472-1.943-.472Zm17.592 28.997.478-1.942-.478 1.942Zm18.098-2.765 1.037 1.71-1.037-1.71Zm2.4-1.668 1.573-1.235-1.247-1.587-1.576 1.26 1.25 1.562Zm-1.01-1.287a22.31 22.31 0 0 1-1.092.81l2.273 3.292c.452-.313.881-.635 1.288-.955l-2.468-3.147Zm-1.092.81c-.377.26-.761.51-1.144.741l2.075 3.42c.45-.273.9-.565 1.342-.87l-2.273-3.291Zm-1.144.741c-5.255 3.189-11.308 3.94-16.854 2.573l-.957 3.884c6.534 1.61 13.684.726 19.886-3.037l-2.075-3.42Zm-16.854 2.573A22.304 22.304 0 0 1 5.252 35.873l-3.42 2.075A26.304 26.304 0 0 0 18.07 49.881l.957-3.884ZM5.252 35.873A22.304 22.304 0 0 1 2.636 18.98l-3.887-.945a26.304 26.304 0 0 0 3.083 19.913l3.42-2.075ZM2.636 18.98c1.35-5.55 4.812-10.572 10.067-13.76L10.628 1.8C4.426 5.563.34 11.496-1.251 18.035l3.887.945ZM12.703 5.22a22.166 22.166 0 0 1 12.983-3.171l.265-3.991A26.167 26.167 0 0 0 10.628 1.8l2.075 3.42Zm12.984-3.171a22.301 22.301 0 0 1 12.486 4.846l2.499-3.123A26.302 26.302 0 0 0 25.95-1.942l-.263 3.991Zm12.17 2.04-.22.275 3.13 2.491.22-.276-3.13-2.49Zm2.595-.041a25.937 25.937 0 0 0-14.524-5.64l-.261 3.991a21.938 21.938 0 0 1 12.286 4.773l2.499-3.124Zm-14.526-5.64A25.898 25.898 0 0 0 10.81 2.11l2.075 3.42a21.898 21.898 0 0 1 12.782-3.132l.258-3.992ZM10.81 2.11C4.692 5.823.661 11.678-.907 18.123l3.887.945c1.327-5.456 4.734-10.4 9.906-13.537l-2.075-3.42ZM-.907 18.123a25.937 25.937 0 0 0 3.043 19.64l3.42-2.074a21.937 21.937 0 0 1-2.576-16.62l-3.887-.946Zm3.043 19.64a25.949 25.949 0 0 0 16.015 11.772l.956-3.884a21.949 21.949 0 0 1-13.551-9.962l-3.42 2.075Zm16.015 11.772c6.447 1.588 13.495.715 19.613-2.997l-2.074-3.42c-5.173 3.138-11.123 3.878-16.583 2.533l-.956 3.884Zm19.613-2.997c.455-.276.898-.563 1.328-.862l-2.278-3.287c-.363.251-.738.494-1.124.729l2.074 3.42Zm1.328-.862c.43-.297.86-.615 1.285-.954l-2.5-3.123a19.27 19.27 0 0 1-1.063.79l2.278 3.287Zm-1.538-1.28.225.286 3.146-2.471-.225-.286-3.146 2.471Z" mask="url(#a)"/></svg>